<?xml version="1.0" encoding="utf-8"?>
<!-- Generator: Adobe Illustrator 24.1.2, SVG Export Plug-In . SVG Version: 6.00 Build 0)  -->
<svg version="1.1" id="Layer_1" xmlns="http://www.w3.org/2000/svg" xmlns:xlink="http://www.w3.org/1999/xlink" x="0px" y="0px"
	 viewBox="0 0 1952.3 1952.3" style="enable-background:new 0 0 1952.3 1952.3;" xml:space="preserve">
<style type="text/css">
	.st0{fill:#4E5166;}
	.st1{fill:#4E5166;stroke:#4E5166;stroke-width:7;stroke-miterlimit:10;}
	.st2{fill:#FFD7D7;}
</style>
<g>
	<g>
		<path class="st0" d="M1076.8,613.8c-19.8,37.5-59.1,63-104.4,63c-45.3,0-84.6-25.6-104.4-63c-80.8,24.3-136.5,75.9-136.5,135.7
			c0,83.1,107.8,150.5,240.9,150.5s240.9-67.4,240.9-150.5C1213.3,689.7,1157.6,638.1,1076.8,613.8z"/>
		<path class="st0" d="M1090.4,533.7c0,65.2-52.8,118-118,118c-65.2,0-118-52.8-118-118s52.8-118,118-118
			C1037.6,415.8,1090.4,468.6,1090.4,533.7z"/>
	</g>
	<path class="st1" d="M973.3,1320.3c-35.7,0.1-71.4-0.8-107.1-2.7c-35.7-1.9-71.3-4.6-106.8-8.5c-71-7.7-141.8-19.1-211.2-36.7
		c-69.3-17.7-137.9-40.1-201.4-74.8c-31.5-17.5-62-37.9-87.5-64.6c-12.7-13.3-24-28.4-32.4-45.3c-8.4-16.9-13.6-35.9-13.8-55.3
		c-0.3-19.4,4.2-38.7,12.1-56.1c7.9-17.4,18.9-33.1,31.3-47.1c25-27.9,55.2-49.9,86.6-68.5c31.6-18.6,64.7-33.9,98.5-47.2
		c33.8-13.2,68.2-24.7,103.2-34.1c139.8-37.9,284.4-53.4,428.5-53.5c144.1,0.2,288.7,15.5,428.5,53.5c34.9,9.5,69.4,20.8,103.2,34.1
		c33.8,13.3,66.9,28.7,98.5,47.2c15.8,9.3,31.1,19.5,45.7,30.8c14.6,11.3,28.5,23.7,40.9,37.8c12.4,14,23.4,29.7,31.4,47.1
		c8,17.5,12.5,36.6,12.1,56.3l-0.1,3.3l-0.2,3.7c-0.2,2.5-0.4,4.8-0.8,7.2c-0.7,4.8-1.6,9.5-2.8,14.2c-2.4,9.3-5.8,18.2-10,26.7
		c-8.4,17-19.7,32-32.4,45.4c-25.5,26.7-56,47.1-87.5,64.6c-31.6,17.4-64.8,31.6-98.5,43.8c-33.8,12.2-68.2,22.2-102.9,31
		c-69.4,17.6-140.1,29-211.2,36.7c-35.5,3.9-71.1,6.6-106.8,8.5C1044.7,1319.5,1009,1320.4,973.3,1320.3z M973.3,1320.3
		c142.7-0.2,286-15.5,423.7-52.9c34.4-9.3,68.2-20.5,101.3-33.5c33-13,65.3-28,95.8-46c30.3-18,59-39.1,82.1-64.9
		c11.4-12.9,21.3-27.1,28.2-42.5c6.9-15.4,10.7-31.6,10.3-48.3c-0.2-7.9-1.3-16.2-3.4-24.1c-2-7.9-5-15.6-8.7-23.1
		c-7.4-14.8-17.6-28.4-29.3-40.7c-23.6-24.6-52.6-44.2-83-61c-30.5-16.8-62.8-30.6-95.8-42.5c-33-11.9-66.9-21.7-101-30.4
		c-68.3-17.3-138.3-28.6-208.5-36.2c-70.3-7.5-141-11.1-211.8-11.1c-35.4-0.1-70.8,0.8-106.1,2.7c-35.3,1.8-70.6,4.5-105.7,8.3
		c-70.3,7.5-140.2,18.9-208.5,36.2c-34.1,8.7-68,18.5-101,30.4c-33,11.9-65.3,25.7-95.9,42.5c-30.4,16.8-59.5,36.4-83,61
		c-11.7,12.3-21.9,25.9-29.3,40.7c-7.4,14.8-11.7,31-12.1,47.4c-0.3,16.4,3.4,32.9,10.4,48.2c6.9,15.3,16.8,29.5,28.2,42.5
		c23.1,25.8,51.8,47,82.1,64.9c30.4,17.9,62.7,32.9,95.8,46c33.1,13,67,24.2,101.3,33.5C687.2,1304.8,830.5,1320.2,973.3,1320.3z"/>
	<path class="st0" d="M991.1,1481.8c124.1,0,240.5-47.6,328-135.2c87.5-87.5,135.2-203.9,135.2-328s-47.6-240.5-135.2-328
		c-87.5-87.5-203.9-135.2-328-135.2s-240.5,47.6-328,135.2c-87.5,87.5-135.2,203.9-135.2,328s47.6,240.5,135.2,328
		C750.7,1434.2,867,1481.8,991.1,1481.8z M1017.7,1403.2c-8.9,1.1-17.7,1.1-26.6,1.1c-12.2,0-24.4-1.1-36.6-2.2
		c-39.9-62.1-69.8-128.5-87.5-198.4h196.1c6.6,16.6,18.8,32.1,33.2,42.1C1077.6,1301.2,1051,1353.3,1017.7,1403.2z M1123,1381
		c21.1-38.8,37.7-77.6,51-118.6c32.1-6.6,57.6-28.8,69.8-58.7h85.3C1284.8,1284.6,1210.6,1347.8,1123,1381z M1375.7,1018.6
		c0,36.6-5.5,72-14.4,106.4h-119.7c-6.6-14.4-17.7-27.7-31-37.7c2.2-24.4,3.3-48.8,3.3-73.1c0-34.4-2.2-68.7-6.6-101.9h152.9
		C1371.2,945.5,1375.7,982.1,1375.7,1018.6z M1329.1,833.6h-135.2c-14.4-60.9-35.5-118.6-64.3-174
		C1213.9,691.7,1284.8,754.9,1329.1,833.6z M1136.3,1014.2c0,18.8-1.1,37.7-2.2,56.5c-31,6.6-56.5,26.6-68.7,54.3H851.5
		c-4.4-33.2-7.8-67.6-7.8-100.8c0-21.1,1.1-42.1,3.3-63.2c28.8-5.5,52.1-24.4,66.5-48.8h216.1
		C1134.1,945.5,1136.3,979.9,1136.3,1014.2L1136.3,1014.2z M962.3,635.2c10-1.1,19.9-1.1,28.8-1.1c11.1,0,22.2,0,33.2,1.1
		c39.9,62.1,69.8,128.5,87.5,198.4H919.1c-6.6-18.8-18.8-35.5-34.4-47.6C904.7,732.7,930.2,682.9,962.3,635.2L962.3,635.2z
		 M857.1,657.4c-18.8,35.5-35.5,73.1-48.8,110.8c-34.4,6.6-62.1,32.1-73.1,64.3h-80.9C697.5,753.8,769.5,690.6,857.1,657.4z
		 M606.6,1018.6c0-36.6,5.5-73.1,15.5-106.4h120.8c6.6,12.2,16.6,23.3,27.7,32.1c-2.2,26.6-4.4,53.2-4.4,79.8
		c0,34.4,2.2,67.6,6.6,100.8H622.1C611,1090.7,606.6,1055.2,606.6,1018.6z M786.1,1202.6c14.4,59.8,35.5,118.6,64.3,174
		c-84.2-33.2-154-95.3-197.2-174H786.1z"/>
	<path class="st2" d="M985.1,1475.8c124.1,0,240.5-47.6,328-135.2c87.5-87.5,135.2-203.9,135.2-328s-47.6-240.5-135.2-328
		c-87.5-87.5-203.9-135.2-328-135.2s-240.5,47.6-328,135.2c-87.5,87.5-135.2,203.9-135.2,328s47.6,240.5,135.2,328
		C744.7,1428.2,861,1475.8,985.1,1475.8z M1011.7,1397.2c-8.9,1.1-17.7,1.1-26.6,1.1c-12.2,0-24.4-1.1-36.6-2.2
		c-39.9-62.1-69.8-128.5-87.5-198.4h196.1c6.6,16.6,18.8,32.1,33.2,42.1C1071.6,1295.2,1045,1347.3,1011.7,1397.2z M1117,1375
		c21.1-38.8,37.7-77.6,51-118.6c32.1-6.6,57.6-28.8,69.8-58.7h85.3C1278.8,1278.6,1204.6,1341.8,1117,1375z M1369.7,1012.6
		c0,36.6-5.5,72-14.4,106.4h-119.7c-6.6-14.4-17.7-27.7-31-37.7c2.2-24.4,3.3-48.8,3.3-73.1c0-34.4-2.2-68.7-6.6-101.9h152.9
		C1365.2,939.5,1369.7,976.1,1369.7,1012.6z M1323.1,827.6h-135.2c-14.4-60.9-35.5-118.6-64.3-174
		C1207.9,685.7,1278.8,748.9,1323.1,827.6z M1130.3,1008.2c0,18.8-1.1,37.7-2.2,56.5c-31,6.6-56.5,26.6-68.7,54.3H845.5
		c-4.4-33.2-7.8-67.6-7.8-100.8c0-21.1,1.1-42.1,3.3-63.2c28.8-5.5,52.1-24.4,66.5-48.8h216.1
		C1128.1,939.5,1130.3,973.9,1130.3,1008.2L1130.3,1008.2z M956.3,629.2c10-1.1,19.9-1.1,28.8-1.1c11.1,0,22.2,0,33.2,1.1
		c39.9,62.1,69.8,128.5,87.5,198.4H913.1c-6.6-18.8-18.8-35.5-34.4-47.6C898.7,726.7,924.2,676.9,956.3,629.2L956.3,629.2z
		 M851.1,651.4c-18.8,35.5-35.5,73.1-48.8,110.8c-34.4,6.6-62.1,32.1-73.1,64.3h-80.9C691.5,747.8,763.5,684.6,851.1,651.4z
		 M600.6,1012.6c0-36.6,5.5-73.1,15.5-106.4h120.8c6.6,12.2,16.6,23.3,27.7,32.1c-2.2,26.6-4.4,53.2-4.4,79.8
		c0,34.4,2.2,67.6,6.6,100.8H616.1C605,1084.7,600.6,1049.2,600.6,1012.6z M780.1,1196.6c14.4,59.8,35.5,118.6,64.3,174
		c-84.2-33.2-154-95.3-197.2-174H780.1z"/>
	<g>
		<path class="st1" d="M1504.9,813.4c33.8,13.3,66.9,28.7,98.5,47.2c15.8,9.3,31.1,19.5,45.7,30.8c14.6,11.3,28.5,23.7,40.9,37.8
			c12.4,14,23.4,29.7,31.4,47.1c8,17.5,12.5,36.6,12.1,56.3l-0.1,3.3l-0.2,3.7c-0.2,2.5-0.4,4.8-0.8,7.2c-0.7,4.8-1.6,9.5-2.8,14.2
			c-2.4,9.3-5.8,18.2-10,26.7c-8.4,17-19.7,32-32.4,45.4c-25.5,26.7-56,47.1-87.5,64.6c-31.6,17.4-64.8,31.6-98.5,43.8
			c-33.8,12.2-68.2,22.2-102.9,31c-69.4,17.6-140.1,29-211.2,36.7c-35.5,3.9-71.1,6.6-106.8,8.5c-35.7,1.9-71.4,2.8-107.1,2.7
			c-35.7,0.1-71.4-0.8-107.1-2.7c-35.7-1.9-71.3-4.6-106.8-8.5c-71-7.7-141.8-19.1-211.2-36.7c-69.3-17.7-137.9-40.1-201.4-74.8
			c-31.5-17.5-62-37.9-87.5-64.6c-12.7-13.3-24-28.4-32.4-45.3c-8.4-16.9-13.6-35.9-13.8-55.3c-0.3-19.4,4.2-38.7,12.1-56.1
			c7.9-17.4,18.9-33.1,31.3-47.1c25-27.9,55.2-49.9,86.6-68.5c31.6-18.6,64.7-33.9,98.5-47.2c10.8-4.2,21.7-8.3,32.7-12.2
			l-13.8,36.4c-2.9,1-5.7,2-8.6,3c-33,11.9-65.3,25.7-95.9,42.5c-30.4,16.8-59.5,36.4-83,61c-11.7,12.3-21.9,25.9-29.3,40.7
			c-7.4,14.8-11.7,31-12.1,47.4c-0.3,16.4,3.4,32.9,10.4,48.2c6.9,15.3,16.8,29.5,28.2,42.5c23.1,25.8,51.8,47,82.1,64.9
			c30.4,17.9,62.7,32.9,95.8,46c33.1,13,67,24.2,101.3,33.5c137.7,37.4,281,52.7,423.7,52.9c142.7-0.2,286-15.5,423.7-52.9
			c34.4-9.3,68.2-20.5,101.3-33.5c33-13,65.3-28,95.8-46c30.3-18,59-39.1,82.1-64.9c11.4-12.9,21.3-27.1,28.2-42.5
			c6.9-15.4,10.7-31.6,10.3-48.3c-0.2-7.9-1.3-16.2-3.4-24.1c-2-7.9-5-15.6-8.7-23.1c-7.4-14.8-17.6-28.4-29.3-40.7
			c-23.6-24.6-52.6-44.2-83-61c-23.6-13-48.2-24.2-73.4-34.1L1504.9,813.4z"/>
	</g>
	<g>
		<path class="st0" d="M288.1,876.8c-13,24.6-38.7,41.3-68.5,41.3c-29.7,0-55.5-16.8-68.5-41.3c-53,15.9-89.5,49.8-89.5,89
			c0,54.5,70.7,98.7,158,98.7c87.2,0,158-44.2,158-98.7C377.6,926.6,341,892.8,288.1,876.8z"/>
		<path class="st0" d="M297,824.3c0,42.7-34.6,77.4-77.4,77.4c-42.7,0-77.4-34.6-77.4-77.4c0-42.7,34.6-77.4,77.4-77.4
			C262.4,747,297,781.6,297,824.3z"/>
	</g>
	<g>
		<path class="st0" d="M1802.2,891.9c-13,24.6-38.7,41.3-68.5,41.3c-29.7,0-55.5-16.8-68.5-41.3c-53,15.9-89.5,49.8-89.5,89
			c0,54.5,70.7,98.7,158,98.7c87.2,0,158-44.2,158-98.7C1891.6,941.7,1855.1,907.8,1802.2,891.9z"/>
		<path class="st0" d="M1809.9,839.4c0,42.7-34.6,77.4-77.4,77.4c-42.7,0-77.4-34.6-77.4-77.4c0-42.7,34.6-77.4,77.4-77.4
			C1775.2,762,1809.9,796.6,1809.9,839.4z"/>
	</g>
	<g>
		<path class="st0" d="M1327.5,1209c-9.6,18.1-28.6,30.5-50.5,30.5c-21.9,0-40.9-12.4-50.5-30.5c-39.1,11.7-66,36.7-66,65.6
			c0,40.2,52.1,72.8,116.5,72.8c64.3,0,116.5-32.6,116.5-72.8C1393.5,1245.7,1366.5,1220.7,1327.5,1209z"/>
		<path class="st0" d="M1334.1,1170.3c0,31.5-25.5,57-57,57c-31.5,0-57-25.5-57-57c0-31.5,25.5-57,57-57
			C1308.5,1113.2,1334.1,1138.8,1334.1,1170.3z"/>
	</g>
	<g>
		<path class="st0" d="M650.1,1209c-9.6,18.1-28.6,30.5-50.5,30.5c-21.9,0-40.9-12.4-50.5-30.5c-39.1,11.7-66,36.7-66,65.6
			c0,40.2,52.1,72.8,116.5,72.8c64.3,0,116.5-32.6,116.5-72.8C716.1,1245.7,689.1,1220.7,650.1,1209z"/>
		<path class="st0" d="M656.7,1170.3c0,31.5-25.5,57-57,57c-31.5,0-57-25.5-57-57c0-31.5,25.5-57,57-57
			C631.1,1113.2,656.7,1138.8,656.7,1170.3z"/>
	</g>
</g>
</svg>
