<?xml version="1.0" encoding="utf-8"?>
<!-- Generator: Adobe Illustrator 24.1.2, SVG Export Plug-In . SVG Version: 6.00 Build 0)  -->
<svg version="1.1" xmlns="http://www.w3.org/2000/svg" xmlns:xlink="http://www.w3.org/1999/xlink" x="0px" y="0px"
	 viewBox="0 0 1100 800" style="enable-background:new 0 0 1100 800;" xml:space="preserve">
<style type="text/css">
	.st0{display:none;}
	.st1{display:inline;fill:#D5E6F4;}
	.st2{display:inline;opacity:8.000000e-02;}
	.st3{fill:#BCBEC0;}
	.st4{fill:#EAC5B0;}
	.st5{fill:#3B455A;}
	.st6{fill:#B9916F;}
	.st7{fill:#FFFFFF;}
	.st8{fill:#ABADB2;}
	.st9{fill:#7DB5DB;}
	.st10{fill:#305399;}
	.st11{fill:#587BC9;}
	.st12{opacity:6.000000e-02;}
</style>
<g id="background" class="st0">
	<rect class="st1" width="1100" height="800"/>
</g>
<g id="shadow" class="st0">
	<path class="st2" d="M313.1,635.6c-45.8,0.5-87.6,5.4-132.8,6.7c-22.9,0.7-97.9-1.1-112.4,11.7c-22.9,20.2,37.6,19,31.4,34.3
		c-1.2,3-5.8,5.1-8.7,7.8c-5,4.7-3.8,11.2,1.6,15.8c23.3,20.3,108.7,14.4,144.6,14.7c207.5,2,415.5,4.4,621.9-2.4
		c44.5-1.4,88.7-3.3,133.1-5c20.3-0.8,45.7-2.8,45.7-7.4c0.2-11.5-38.4,0.6-25.6-22.4c4.1-7.4,25.3-8.9,14.5-21.5
		c-11.8-13.9-39.1-24.7-64.3-28.2c-25.8-3.6-52.2-3-78.4-4.2c-48.1-2.1-96.4-2.5-144.6-2.7c-109.4-0.4-218.8,0.3-328.2,1.4
		C378.2,634.6,345.6,635.2,313.1,635.6z"/>
</g>
<g id="object">
	<g>
		<g>
			
				<rect x="146.5" y="211.8" transform="matrix(4.539953e-02 -0.999 0.999 4.539953e-02 -141.0877 419.3584)" class="st3" width="4.7" height="143.3"/>
		</g>
		<g>
			
				<rect x="166.2" y="130.9" transform="matrix(0.7997 -0.6004 0.6004 0.7997 -96.8463 144.7343)" class="st3" width="4.7" height="173.2"/>
		</g>
		<g>
			<polygon class="st4" points="640.8,381.8 641.4,371 646.1,370.8 647.3,378.2 649.5,377.1 647.8,386.3 643,387.2 			"/>
			<polygon class="st5" points="701.2,424.7 666.9,421.7 650,381.1 640.6,384.2 649.5,440.3 703.1,450 			"/>
		</g>
		<g>
			<polygon class="st6" points="209.9,360.8 208.3,350 203.6,350.2 203.1,357.7 200.8,356.8 203.2,365.9 208.1,366.3 			"/>
			<polygon class="st5" points="142.6,413.7 192,404 200.6,360.9 210.2,363.1 207.5,423 158.1,439.5 			"/>
		</g>
		<g>
			<g>
				<g>
					<path class="st5" d="M347.7,686.2c-1.1-1.2-2.3-1.8-3.7-1.6c-1.3,0.2-2.5,1.1-3.1,2.3c-0.4,0.8-0.5,1.8-0.5,2.7
						c-0.4,4.7-0.4,15.8,5.9,17.4c2.6,0.7,4.8-1.2,5.5-3.5C352.8,699.9,351.3,690.1,347.7,686.2z"/>
					<path class="st4" d="M349.9,615.6l-0.3,28.5c0.4,12.7-1.6,25.4-1.2,38.1c0.1,2.9,0.8,6,0.1,8.9c-0.7,2.8-3,3.3-5.4,1.9
						c-3.2-1.9-2.6-6.4-3.2-9.7c-1.4-9-3.1-17.9-4.6-26.9c-0.7-4.4,0.8-10.6,0.5-15c0,0-4.6-23.9-4.6-23.9L349.9,615.6z"/>
				</g>
				<polygon class="st5" points="317.3,569.5 329.7,624.7 332.4,676.8 352.1,676.3 357.4,530.6 319.2,531.3 				"/>
				<g>
					<g>
						<path class="st5" d="M375.9,685.2c-1.1-1.1-2.4-1.7-3.7-1.4c-1.3,0.3-2.5,1.3-3,2.5c-0.3,0.9-0.4,1.8-0.4,2.7
							c-0.2,4.7,0.3,15.8,6.6,17.1c2.6,0.5,4.7-1.5,5.3-3.9C381.6,698.6,379.6,688.9,375.9,685.2z"/>
						<path class="st4" d="M365.5,619.6l1.7,28.5c0.1,7.9,1.2,15.8,2,23.6c0.8,7.3-0.4,14.9,3.4,21.6c1.2,2.1,3.6,3.5,5.3,0.9
							c1.3-2,0.5-5.2,0.8-7.4c1-9,2.3-18,3.4-27.1c0.5-4.4-1.3-10.5-1.2-15c0,0,3.5-24.1,3.5-24.1L365.5,619.6z"/>
					</g>
					<polygon class="st5" points="390.4,566.1 392,619.7 383.6,673.9 363.6,674.5 364.5,615.8 353.9,567.2 350.3,535.4 382.1,531.7 
											"/>
				</g>
				<polygon class="st7" points="365.3,422 331,421.2 311.2,458.1 318.2,492.7 319.5,534.1 368.3,534.8 384.4,532.2 380.1,488 
					382.6,428.9 				"/>
				<polygon class="st4" points="319.6,517.8 318,523.6 326,530.1 332.2,527.3 333.9,520.6 329,518.7 329.2,517.1 327.9,515.4 				
					"/>
				<polygon class="st7" points="331.1,422.5 289.2,468.4 282.9,487 317.1,522.9 327.5,515.9 305.6,485.9 326.5,470.4 				"/>
				<polygon class="st8" points="364,444.4 381.8,480.1 401.1,483.9 438.1,452.6 429.9,443.2 397,461.6 379.6,428.9 				"/>
				<g>
					<path class="st4" d="M363.1,393.3c-5.2-15-25-9.4-29.1,4c-2.7,8.7,4.1,20,13.1,22.5c0,0.3,0.1,0.7,0.1,0.9
						c0,1.4,0.2,2.8,0.4,4.2c0.1,0.5,8-1,8.9-1.2c0.3-0.1,0.7-0.1,0.8-0.4c0.3-0.5-0.2-2-0.3-2.5c-0.1-0.7-0.1-1.3-0.2-2
						c4.5-2.2,7.3-6.8,8.1-11.5C365.7,402.7,364.7,397.8,363.1,393.3z"/>
					<g>
						<path class="st5" d="M350.2,379.8c-1.1,1.1-1.5,2.6-1.8,4c-0.2,0.9-0.3,1.8-0.2,2.6c0.7,3.4,4.1,3.2,6.7,4.3
							c3.2,1.4,6,3.8,7.8,6.7c2.8,4.5,1.6,10.3,0.4,15.2c-0.4,1.7-1.2,4.3,0.1,5.9c1.4,1.6,4.6,1.3,6.2,0.5c1.5-0.7,2.7-2.1,4.4-2.4
							c1.8-0.3,4.1,0.5,4.9-1.1c0.2-0.4,0.2-1,0.5-1.4c1-1.4,3.4,0.2,4.7-0.7c0.8-0.6,0.8-1.9,0.5-2.9c-0.3-1-0.8-2-0.6-3.1
							c0.2-0.9,0.8-1.6,1.2-2.4c0.8-1.6,0.5-3.7-0.7-5c-2.2-2.5-6.3-2-8.6-4.4c-1.2-1.2-1.7-3-2.1-4.7c-0.4-1.7-1-3.4-2.3-4.6
							c-1.6-1.4-3.9-1.2-5.5-2.8c-0.9-1-1.5-2.2-2.6-3.1c-1.4-1.1-4-2-5.7-2.5C355.2,377.2,352.2,377.7,350.2,379.8z"/>
						<path class="st5" d="M337.7,403.7c-0.1,4.9,2.4,10.3,0.1,14.6c-2.3,4.4-8,5.2-12.9,5.4c-0.8,0-11.1,0.9-11.1,0.7
							c-0.8-3.4-1.6-7-3.4-10c-1.8-3-4.8-5.5-8.3-5.7c1-0.2,1.5-1.4,1.4-2.4c-0.1-1-0.6-2-1-2.9c-0.8-2.4,0-5.2,1.8-6.9
							c3.6-3.4,10.2-2,13.4-5.9c1.9-2.4,1.7-5.9,2.7-8.9c2-5.7,8.2-6.9,12.9-9.5c4.9-2.7,9.6-4.2,15.3-3.3
							c7.1,1.2,12.3,8.4,9.6,15.1c-3.5,8.7-17.4,7.9-20.1,16.7C337.8,401.8,337.7,402.7,337.7,403.7z"/>
					</g>
				</g>
			</g>
			<polygon class="st9" points="341.2,421.8 351.8,436.9 356.8,436.4 365.1,421.2 			"/>
		</g>
		<g>
			
				<rect x="848.9" y="72.4" transform="matrix(0.1321 -0.9912 0.9912 0.1321 581.0779 981.7867)" class="st3" width="4.7" height="173.4"/>
		</g>
		<g>
			
				<rect x="279.4" y="264.7" transform="matrix(0.6841 -0.7293 0.7293 0.6841 -194.2453 328.1251)" class="st3" width="4.7" height="247.3"/>
		</g>
		<g>
			
				<rect x="875.7" y="100.1" transform="matrix(0.5612 -0.8277 0.8277 0.5612 191.1516 829.652)" class="st3" width="4.7" height="268.9"/>
		</g>
		<g>
			<path class="st5" d="M185.4,546.5c-0.8-8.4-1.7-16.9-2.7-25.3c-2.1-16.8-4.9-33.6-9.7-49.8c-1.8-6.2-3.9-12.3-6-18.5
				c-2.6-7.5-5.1-14.9-7.7-22.4c-3.2-9.3-8.6-15.8-18-19c-1.7-0.6-3.4-1-5.3-1.4c0,0.2-0.1,0.4-0.1,0.6c-0.1,0.9-0.4,1.9-0.9,2.5
				l6.2,0.1c0,0,17.4,60.9,18.1,71.4c0.2,4,1.1,12.7,2,21.9l9.5,1.4l0.4,35.1c0.5,0.2,1.1,0.3,1.6,0.4c3,0.8,5.4,3,7.9,4.7
				C184.3,550.6,185.9,551.6,185.4,546.5z"/>
			<path class="st5" d="M111.8,505.7c1.7-8.6,3.1-16.5,3.2-20.8c0.4-12.9,2-55.5,2-55.5l8-16.3l1.5,0c-0.1,0-0.2,0-0.3,0
				c0.1-1.4,0.1-2.5-0.1-3.6c-14,0.8-28.3,8.2-32.3,21.8c-0.3,1.1-0.6,2.3-0.7,3.4c-0.6,7,1.6,12.1-0.4,19.2
				c-1.8,6.1-3.3,12.3-4.5,18.5c-1.7,9-3.2,18-4.5,27c-1.4,9.9-2.3,19.8-2.6,29.7c0,1.1-0.2,4.1-0.4,7.8c-0.3,7.6-0.1,17.8,3.1,18.2
				c0.6,0.1,1.2-0.2,1.7-0.5c4.1-2,7.4-4.6,11-6.9l0.2-39.7L111.8,505.7z"/>
			<path class="st5" d="M145.6,537.7c-0.7,0.1-1.4,0.1-2.1,0.2l-6.8,65.1l7.3,94.7h0.1v-1.4h12.2l15.4-105.5l-0.6-47.8
				c-7.4-2.1-15.4-5.4-23-5.3C147.2,537.6,146.4,537.7,145.6,537.7z"/>
			<path class="st5" d="M161.2,506.5c1.4,14.5,3.1,30.2,3.1,30.2s-7.6,0.2-18.7,1c0.8,0,1.6,0,2.5,0c7.7-0.1,15.7,3.2,23,5.3
				l-0.4-35.1L161.2,506.5z"/>
			<polygon class="st5" points="144.1,697.7 144.1,702.8 157.1,709.3 163.6,702.8 157.1,696.3 156.2,696.3 156,697.7 			"/>
			<polygon class="st5" points="144.1,697.7 156,697.7 156.2,696.3 144.1,696.3 			"/>
			<path class="st5" d="M126.5,539.5c-0.3,0-0.6,0.1-0.9,0.1c-7.7,1.7-12.8,2.3-16,2.5c-3.1,0.8-6.2,1.9-9.1,3.2
				c-1.4,0.7-2.8,1.4-4,2.2l0,8.3l14.8,140.4h12.1v1.4h0.1l13.3-94.2l0.1-0.5l-0.3-3.9L126.5,539.5z"/>
			<path class="st5" d="M109.6,542.1c-5.3,0.3-5.9-0.7-5.9-0.7s4.8-19.1,8.1-35.7l-15.1,2.2l-0.2,39.7c1.3-0.8,2.6-1.6,4-2.2
				C103.4,544,106.5,542.9,109.6,542.1z"/>
			<path class="st5" d="M126.5,539.5l9.9,59.5l0.3,3.9l6.8-65.1C138.4,538.3,132.6,538.8,126.5,539.5z"/>
			<polygon class="st5" points="111.2,696.3 110.3,696.3 103.8,702.8 110.3,709.3 123.3,702.8 123.3,697.7 111.4,697.7 			"/>
			<polygon class="st5" points="111.2,696.3 111.4,697.7 123.3,697.7 123.3,696.3 			"/>
			<path class="st7" d="M134.2,413.8c-0.5,0.2-1.1,0.1-1.6,0c-2-0.2-4.1-0.5-6.1-0.7l-1.5,0l-8,16.3c0,0-1.7,42.6-2,55.5
				c-0.1,4.3-1.5,12.2-3.2,20.8l8.9-1.3l-0.7-3.9l4.8,0.7l-0.3-0.6l2-78.6l-1.3-5.1c-0.4-1.4,0.7-2.8,2.2-2.8h8
				c1.9,0,2.9,2.1,1.8,3.6l-3.3,4.3l8.6,79.1l5-0.7l-0.4,4l14.2,2.1c-0.9-9.2-1.7-17.9-2-21.9c-0.6-10.5-18.1-71.4-18.1-71.4
				l-6.2-0.1c-0.1,0.1-0.1,0.2-0.2,0.2C134.6,413.6,134.4,413.7,134.2,413.8z"/>
			<path class="st7" d="M143.5,537.8c0.7-0.1,1.4-0.1,2.1-0.2c-0.7,0-1.4,0-2.1,0.1L143.5,537.8z"/>
			<path class="st7" d="M143.5,537.7c0.7,0,1.4,0,2.1-0.1c11.1-0.8,18.7-1,18.7-1s-1.7-15.7-3.1-30.2l-14.2-2.1L143.5,537.7z"/>
			<polygon class="st7" points="124.8,501.1 120,500.4 120.6,504.3 126.2,503.5 			"/>
			<path class="st7" d="M119.2,540.2c-3.2,0.5-6.5,1.1-9.6,1.9c3.3-0.2,8.3-0.8,16-2.5c0.3,0,0.6-0.1,0.9-0.1l-0.1-0.4
				C124,539.4,121.6,539.8,119.2,540.2z"/>
			<polygon class="st7" points="141.5,503.6 147,504.4 147.4,500.4 142.4,501.1 142.6,502.5 			"/>
			<path class="st7" d="M126.4,539.1l-5.8-34.8l-8.9,1.3c-3.3,16.6-8.1,35.7-8.1,35.7s0.7,1,5.9,0.7c3.2-0.8,6.4-1.4,9.6-1.9
				C121.6,539.8,124,539.4,126.4,539.1z"/>
			<path class="st7" d="M126.4,539.1l0.1,0.4c6-0.7,11.8-1.3,17-1.7l0-0.1C137.8,537.9,132.1,538.4,126.4,539.1z"/>
			<path class="st7" d="M143.5,537.7l3.5-33.4l-5.5-0.8l-9.7,9.5l-5.6-9.6l-5.5,0.8l5.8,34.8C132.1,538.4,137.8,537.9,143.5,537.7z"
				/>
			<path class="st9" d="M142.4,501.1l-8.6-79.1l3.3-4.3c1.1-1.5,0.1-3.6-1.8-3.6h-8c-1.5,0-2.5,1.4-2.2,2.8l1.3,5.1l-2,78.6l0.3,0.6
				l8.9,1.3L142.4,501.1z"/>
			<polygon class="st9" points="133.7,502.4 124.8,501.1 126.2,503.5 			"/>
			<polygon class="st9" points="141.5,503.6 142.6,502.5 142.4,501.1 133.7,502.4 			"/>
			<polygon class="st9" points="126.2,503.5 131.8,513.1 141.5,503.6 133.7,502.4 			"/>
			<path class="st6" d="M136.1,410.1c0.8-3.4,4.6-5,6.6-8c2.3-3.5,3.5-7.5,4.1-11.6c0-0.1,0-0.1,0-0.2c-0.3,0.2-0.6,0.3-0.9,0.4
				c-0.4-1.6,0.4-3.3,0.7-5c0.1-0.4,0.1-0.8,0.1-1.3c-2.9-0.5-5.9-1.6-8.1-2.5c-4.5-2-13.2-4-17.9-1.7c-3.7,1.8-2.6,7.7-2.4,11.4
				c0,0.9,0.1,1.9-0.1,2.8c-0.2,0.9-0.8,1.6-1.2,2.4c0.4,1.4,1.1,2.8,2.2,4c3,3.3,6,5,6.8,8.7C129.4,409.3,132.9,409.5,136.1,410.1z
				"/>
			<path class="st6" d="M126.1,413c0.1,0,0.2,0,0.3,0l8.6,0.1c0.6-0.6,0.8-1.6,0.9-2.5c0-0.2,0.1-0.4,0.1-0.6
				c-3.2-0.6-6.6-0.8-10.1-0.6C126.2,410.5,126.3,411.7,126.1,413z"/>
			<path class="st4" d="M132.6,413.8c0.5,0.1,1.1,0.1,1.6,0c0.3-0.1,0.5-0.2,0.7-0.4c0.1-0.1,0.1-0.1,0.2-0.2l-8.6-0.1
				C128.5,413.3,130.5,413.6,132.6,413.8z"/>
			<path class="st5" d="M146.9,384.4c0.4,1.9,0.2,3.9-0.1,5.8c2-1.1,3.4-3.3,4.2-5.6C149.7,384.8,148.3,384.7,146.9,384.4z"/>
			<path class="st5" d="M146.9,384.4c-0.1,0-0.1,0-0.2,0c0,0.4,0,0.9-0.1,1.3c-0.4,1.7-1.1,3.3-0.7,5c0.3-0.1,0.6-0.3,0.9-0.4
				C147,388.3,147.3,386.3,146.9,384.4z"/>
			<path class="st5" d="M116.8,385.4c0.1-1.5,0.1-3,0.8-4.3c1.1-2.3,3.6-3.6,6.1-4.4c6.3-1.9,13.4-1.5,18.9,2.1
				c1.5,0.9,2.8,2.1,3.6,3.7c0.1,0.2,0.2,0.5,0.3,0.7c-0.4-1.8-1.2-3.6-0.9-4.9c0.4-1.9,3-2.3,4.4-1.2c1,0.7,1.6,2.1,1.7,3.4
				c0.1,1.3-0.2,2.6-0.6,3.9c0,0.1-0.1,0.2-0.1,0.3c0.9-0.1,1.7-0.3,2.5-0.6c3.9-1.7,7.1-8.6,7-12.8c-0.1-2-0.8-3.7-2.6-4.9
				c-1.5-1-3.3-1.9-4.2-3.5c-0.7-1.3-0.8-2.8-1.5-4.1c-1.3-2.3-4.1-3-6.5-3.8c-6.1-2-9.4-4.2-15.8-1.7c-4.6,1.8-10.5,2-14.8,4.6
				c-1.8,1.1-3.3,2.8-4.5,4.8c-4.3,6.7-5.3,16.2-2.5,23.2c0.6,1.6,1.4,3,2.3,4.4c1.7,2.8,3.5,6.2,6.5,7.5c0-0.3,0.2-0.6,0.3-0.9
				C116.1,393.2,116.7,389.2,116.8,385.4z"/>
			<path class="st5" d="M118.4,391.5c-0.2-3.7-1.3-9.5,2.4-11.4c4.7-2.3,13.4-0.2,17.9,1.7c2.2,0.9,5.1,2,8.1,2.5
				c0-0.4-0.1-0.7-0.2-1.1c-0.1-0.3-0.2-0.5-0.3-0.7c-0.8-1.6-2.2-2.7-3.6-3.7c-5.5-3.5-12.7-4-18.9-2.1c-2.5,0.8-5,2-6.1,4.4
				c-0.6,1.3-0.7,2.8-0.8,4.3c-0.2,3.7-0.8,7.7,0.2,11.3c0.4-0.8,1-1.4,1.2-2.4C118.5,393.4,118.4,392.4,118.4,391.5z"/>
			<path class="st5" d="M151.8,380.5c-0.1-1.3-0.7-2.6-1.7-3.4c-1.4-1-4-0.6-4.4,1.2c-0.3,1.3,0.6,3.1,0.9,4.9
				c0.1,0.4,0.3,0.8,0.3,1.2c1.4,0.2,2.9,0.3,4.2,0.2c0-0.1,0.1-0.2,0.1-0.3C151.6,383.1,151.9,381.8,151.8,380.5z"/>
			<path class="st5" d="M146.5,383.3c0.1,0.4,0.1,0.8,0.2,1.1c0.1,0,0.1,0,0.2,0C146.8,384,146.7,383.7,146.5,383.3z"/>
		</g>
		<g>
			<g>
				<g>
					<path class="st5" d="M930.4,398c-2.7,4.3-1.4,9.9-0.2,14.6c0.5,1.9,1.3,4.7-0.6,6.1c-2.1,1.6-5.6,0.1-6.7-2
						c-0.8-1.4-0.8-3.1-0.9-4.7c-0.1-7.2-0.2-17.2,2.5-23.9c2.2-5.3,12-12.9,17.8-7.3c1.1,1,1.5,2.5,1.8,3.9
						c0.2,0.8,0.4,1.7,0.2,2.5c-0.7,3.3-4,3.1-6.5,4.2C934.8,392.8,932.1,395.2,930.4,398z"/>
					<path class="st4" d="M936.6,418.6c-4.4-2-7.3-6.5-8.1-11c-0.8-4.5,0.1-9.2,1.5-13.5c4.9-14.4,24.4-9.2,28.6,3.6
						C962.2,408.8,949.5,424.5,936.6,418.6z"/>
					<path class="st5" d="M955.6,404.2c-0.4,1.8-0.1,4-0.4,5.8c-0.6,3.5-2.7,7.6-2.4,11c3.5,0.6,8.3-0.2,11.5-1.7
						c3.3-1.6,4-5.2,5.6-8.5c1.5-3.1,3.2-6.1,4.1-9.4c4.6-18.2-10.1-33.6-28.4-30.5c-6.9,1.2-12,8.1-9.2,14.6
						c3,7,13.3,7.6,17.6,13.4C955,400.2,955.5,402.1,955.6,404.2z"/>
				</g>
				<path class="st4" d="M936.6,417.3c-0.1,1.4-0.3,2.7-0.4,4.1c-0.1,0.6-0.6,2.3-0.3,2.9c0.2,0.3,0.5,0.4,0.8,0.4
					c0.9,0.2,8.6,1.6,8.7,1c0.2-1.6,0.4-3.2,0.4-4.7c0-1.3,0.5-3.5,0.2-4.6c-1.6,0.6-3.1,0.8-4.7,0.8c-1.6,0-3.2,0-4.7-0.1
					C936.6,417.1,936.6,417.2,936.6,417.3z"/>
			</g>
			<g>
				<polygon class="st4" points="879.1,532.2 873.7,531.2 868.3,538.9 871.4,544.3 877.7,545.4 880,537.6 				"/>
				<polygon class="st10" points="930,435.5 905.3,435.4 897.4,490.5 873.6,529.8 880.2,537.5 911.6,505.9 				"/>
			</g>
			<g>
				<path class="st5" d="M921.8,691.5c0.9-1.5,2.1-2.5,3.8-2.6c1.6-0.1,3.1,0.6,4.1,1.8c0.6,0.8,0.9,1.8,1.2,2.8
					c1.6,5,4.3,17.2-2.3,20.5c-2.8,1.3-5.7-0.2-7-2.6C919.4,707.7,918.8,696.6,921.8,691.5z"/>
				<path class="st4" d="M933.8,613.7l-0.9,32c0.2,14.2-2.3,28.5-2.1,42.8c0,3.3,0.9,6.7,0,10c-0.9,3.2-3.5,3.7-6.2,2
					c-3.6-2.2-2.9-7.2-3.5-10.9c-1.5-10.1-3.3-20.2-4.9-30.3c-0.8-4.9,1.1-11.8,0.8-16.8c0,0-4.9-26.9-4.9-26.9L933.8,613.7z"/>
			</g>
			<g>
				<path class="st5" d="M944.5,692.7c1.2-1.4,2.5-2.1,4.2-2c1.5,0.2,3,1.1,3.7,2.5c0.5,0.9,0.6,1.9,0.7,3
					c0.7,5.2,1.2,17.7-5.9,19.8c-3,0.9-5.6-1.1-6.5-3.7C939.3,708.4,940.6,697.3,944.5,692.7z"/>
				<path class="st4" d="M938.3,613.7l1.8,32c0.2,14.2,3.1,28.4,3.4,42.7c0,3.3-0.7,6.8,0.3,10c1,3.1,3.6,3.6,6.3,1.9
					c3.5-2.3,2.7-7.3,3.1-11c1.2-10.1,2.7-20.3,4-30.4c0.6-5-1.4-11.8-1.3-16.8c0,0,4.1-27.1,4.1-27.1L938.3,613.7z"/>
			</g>
			<path class="st9" d="M954.6,423.2l-28.9,1.7L910,436.7c0,0,1.6,49.3,1,67.6c-0.6,18.3-1.8,33.1-3.4,59.8
				c-1.7,29.4,5.8,64.8,5.8,64.8l61-0.9c0,0,12.4-66.9,6-84.3c-6.4-17.3-2.6-34.6-2.8-48.8s-6.2-61.8-6.2-61.8L954.6,423.2z"/>
			<path class="st10" d="M968.2,426.9l14.8,12.2c0,0-6.3,54.6-6.5,63.7c-0.3,9.1,4.7,35.9,4.7,35.9l-21.5-2c0,0-9.9-14.5-12.3-33.6
				c-2.3-19.1,10.5-80.5,10.5-80.5L968.2,426.9z"/>
			<path class="st10" d="M915.5,427.7l-11.1,7.7c0,0,5.1,59.4,5.6,68.4c0.5,9-7,37.9-7,37.9l23.6-4.5c0,0,8.8-14.7,10.5-34
				c1.6-19.2-12.2-80.2-12.2-80.2L915.5,427.7z"/>
			<g>
				<polygon class="st4" points="1012.2,380.8 1018.6,383 1026.5,374 1023.6,366.6 1016.1,364.3 1011.9,373.9 				"/>
				<polygon class="st10" points="958.3,452 1001.5,438.1 1023.2,380.5 1010.3,377.3 984.8,421.1 958.5,426.7 				"/>
			</g>
		</g>
		<g>
			
				<rect x="349.4" y="398.8" transform="matrix(0.8219 -0.5697 0.5697 0.8219 -143.7814 342.3394)" class="st3" width="252.2" height="4.7"/>
		</g>
		<g>
			
				<rect x="469.2" y="135.9" transform="matrix(0.5271 -0.8498 0.8498 0.5271 -7.129326e-02 524.9039)" class="st3" width="4.7" height="253.2"/>
		</g>
		<g>
			
				<rect x="376.8" y="109.3" transform="matrix(9.446920e-02 -0.9955 0.9955 9.446920e-02 34.4049 658.3655)" class="st3" width="4.7" height="402"/>
		</g>
		<g>
			
				<rect x="537.3" y="236.1" transform="matrix(0.7292 -0.6843 0.6843 0.7292 18.2759 523.0527)" class="st3" width="265.4" height="4.7"/>
		</g>
		<g>
			
				<rect x="698.9" y="259.8" transform="matrix(0.5457 -0.838 0.838 0.5457 -27.2245 775.0723)" class="st3" width="4.7" height="305.6"/>
		</g>
		<g>
			
				<rect x="579.1" y="314.5" transform="matrix(0.9995 -3.261876e-02 3.261876e-02 0.9995 -9.9149 25.9016)" class="st3" width="419.6" height="4.7"/>
		</g>
		<circle class="st10" cx="562.2" cy="310.3" r="126.5"/>
		<circle class="st9" cx="359.4" cy="181.6" r="59.3"/>
		<path class="st11" d="M151.4,286.8c0-37.2,30.2-67.4,67.4-67.4s70.8,30.2,70.8,67.4c0,37.2-33.6,67.4-70.8,67.4
			S151.4,324,151.4,286.8z"/>
		<circle class="st10" cx="380.9" cy="472.9" r="53.2"/>
		<circle class="st11" cx="765.2" cy="152.1" r="58.8"/>
		<circle class="st11" cx="829.3" cy="489.2" r="64"/>
		
			<ellipse transform="matrix(0.7071 -0.7071 0.7071 0.7071 70.5712 790.3933)" class="st9" cx="989.4" cy="310" rx="72.6" ry="72.6"/>
		<circle class="st10" cx="937.1" cy="170.5" r="35.9"/>
		<circle class="st10" cx="120" cy="148.3" r="35.9"/>
		
			<ellipse transform="matrix(0.2298 -0.9732 0.9732 0.2298 -213.226 291.073)" class="st9" cx="77.3" cy="280.2" rx="39.3" ry="39.3"/>
		<circle class="st10" cx="187" cy="463.6" r="43.9"/>
		<g>
			<polygon class="st6" points="133.5,475 140.4,474.6 144.3,469.9 145.8,470.3 145.4,472 149.8,469.1 154.1,469.5 156.9,474.5 
				156,480.3 150.8,482.6 144.1,481.8 134.6,482.9 			"/>
			<polygon class="st5" points="137.1,471.7 99.3,472.7 107,414.6 81.2,440.1 77.3,493.7 91.2,501.2 142.8,484.8 			"/>
		</g>
		<g>
			<path class="st5" d="M674.4,432.6l10.2-9.9l27.5,1.8c0,0,2.8,19.6,15.3,63.4c12.5,43.8-5.8,99.5-5.8,99.5s-70.9-16.9-85.1-19.6
				l17.8-80L674.4,432.6z"/>
			<polygon class="st5" points="697,538 697,553.6 676.2,621.2 681.4,691.4 668.4,694 647.6,608.2 648.4,583 658,531.5 			"/>
			<polygon class="st5" points="680.5,556.5 701.4,699.5 710.9,699.5 716.9,621.5 729.9,543.5 			"/>
			<polygon points="670.1,692.7 660.2,703.2 663.1,708.5 683.6,698.7 679.8,690.9 			"/>
			<polygon points="701.6,697.5 689.4,705.2 690.8,711 713.1,706.6 711.4,698.2 			"/>
			<g>
				<path class="st6" d="M697.2,382.3c5.8,6.1,16.3,6.3,21.3,13.2c3.2,4.5,3.1,10.9,0.7,16c-1.1,2.4-2.8,4.6-5,5.9
					c-1.5,0.9-3.1,1.3-4.8,1.6c-2.2,0.3-4.5,0.2-6.6-0.2c-0.4,2-0.6,4-0.6,6c-3.9-1.5-9-0.3-12.9-1.8c0.9-2.2,3-7.2,3.9-9.5
					c-0.8-0.8-1.6-1.7-2.2-2.7c-3.9-6-4-14.3-0.4-20.6C692.3,387.2,694.7,384.7,697.2,382.3z"/>
				<polygon class="st5" points="697,385.7 718.3,400.9 708.7,419.1 718,419.7 737.2,393.1 710.6,367.7 692.5,363.9 686.7,371.2 
					690.8,387.9 				"/>
			</g>
			<path class="st7" d="M683.4,423.8l37.2,0.1c0,0,5.4,12.8,17.9,56.5c12.5,43.8-5.8,99.5-5.8,99.5s-63.4-31.3-77.6-34.1l10.3-65.5
				L683.4,423.8z"/>
			<path class="st5" d="M739.1,481.4c-12.5-43.8-18.4-57.5-18.4-57.5l-36.1-1.3l-0.1,0.2c0.7,1.8,1.4,3.6,2,5.4
				c2.5,7.2,4.3,14.5,5.4,22c2,13.1,2.2,26.7,1.7,39.9c-0.4,12.7-1.7,25.4-4,38c-3,16.6-7.8,32.7-13.9,48.4
				c28.8,5.8,62.7,12.8,62.7,12.8S751.6,525.1,739.1,481.4z"/>
			<path class="st5" d="M670,491.5c-1.4,5.9-2.9,12.5-1.7,18.3c0,0,3.9,8.1,4.2,7.7c0-0.3,4.4-3.9,5.6-6.6
				c2.1-4.6,2.5-10.4,2.6-15.6c0.2-18.4-0.9-37,2.2-55.2c3.6-1.1,6.7-3.8,4.5-7.6c-7.1,2.7-7.8,18.6-9.4,25.1
				C675.3,469,672.7,480.3,670,491.5z"/>
		</g>
		<path class="st7" d="M562.2,410c26.7,0,51.7-10.3,70.6-29.1c18.8-18.8,29.1-43.9,29.1-70.6c0-26.7-10.3-51.7-29.1-70.6
			c-18.8-18.8-43.9-29.1-70.6-29.1c-26.7,0-51.7,10.3-70.6,29.1c-18.8,18.8-29.1,43.9-29.1,70.6c0,26.7,10.3,51.7,29.1,70.6
			S535.5,410,562.2,410z M567.9,393c-1.9,0.2-3.8,0.2-5.7,0.2c-2.6,0-5.2-0.2-7.9-0.5c-8.6-13.4-15-27.7-18.8-42.7h42.2
			c1.4,3.6,4.1,6.9,7.2,9.1C580.8,371.1,575.1,382.3,567.9,393z M590.6,388.3c4.5-8.3,8.1-16.7,11-25.5c6.9-1.4,12.4-6.2,15-12.6
			h18.4C625.4,367.5,609.4,381.1,590.6,388.3z M644.9,310.3c0,7.9-1.2,15.5-3.1,22.9h-25.8c-1.4-3.1-3.8-6-6.7-8.1
			c0.5-5.2,0.7-10.5,0.7-15.7c0-7.4-0.5-14.8-1.4-21.9h32.9C644,294.5,644.9,302.4,644.9,310.3z M634.9,270.4h-29.1
			c-3.1-13.1-7.6-25.5-13.8-37.4C610.1,239.9,625.4,253.5,634.9,270.4z M593.4,309.3c0,4.1-0.2,8.1-0.5,12.2
			c-6.7,1.4-12.2,5.7-14.8,11.7h-46c-1-7.2-1.7-14.5-1.7-21.7c0-4.5,0.2-9.1,0.7-13.6c6.2-1.2,11.2-5.2,14.3-10.5H592
			C593,294.5,593.4,301.9,593.4,309.3L593.4,309.3z M556,227.8c2.1-0.2,4.3-0.2,6.2-0.2c2.4,0,4.8,0,7.2,0.2
			c8.6,13.4,15,27.7,18.8,42.7h-41.5c-1.4-4.1-4.1-7.6-7.4-10.3C543.6,248.7,549.1,238,556,227.8L556,227.8z M533.3,232.5
			c-4.1,7.6-7.6,15.7-10.5,23.8c-7.4,1.4-13.4,6.9-15.7,13.8h-17.4C499,253.3,514.5,239.7,533.3,232.5z M479.4,310.3
			c0-7.9,1.2-15.7,3.3-22.9h26c1.4,2.6,3.6,5,6,6.9c-0.5,5.7-1,11.4-1,17.2c0,7.4,0.5,14.5,1.4,21.7h-32.4
			C480.4,325.8,479.4,318.1,479.4,310.3z M518.1,349.9c3.1,12.9,7.6,25.5,13.8,37.4c-18.1-7.2-33.1-20.5-42.4-37.4H518.1z"/>
		<polygon class="st4" points="434.8,455.3 437.6,450.1 431.2,441.9 424.5,443.3 421.4,449.5 425.8,452.4 425.2,453.9 426.1,455.8 
					"/>
		<g>
			<path class="st7" d="M1045,302.1c-6-10.1-18.5-14.9-29.8-11.8c0,0,0,0-0.1,0c-3.5,1.3-6.4,3.7-7.6,7.6c-0.3,0.9-1.6,0.5-1.3-0.4
				c1.3-4.2,4.4-6.9,8-8.3c-4-12.6-16.1-21.4-29.5-20.5c-13.1,1-23.8,10.9-26.3,23.7c1.1,0.3,2.2,0.6,3.2,1.1
				c4.2,1.9,7.4,5.2,9.7,9.1c0.5,0.8-0.7,1.5-1.2,0.7c-0.8-1.3-1.6-2.5-2.6-3.6c-3.7-4.1-9-6.6-14.6-6.4c-5.7,0.3-11.7,3.3-15.6,7.4
				c-4.4,4.7-6.7,11.1-6.1,17.6c0.6,6.3,3.9,12.2,9,16c4.7,3.5,10.2,5.1,16.1,5.4c3.8,0.1,7.7,0.2,11.5,0.3c11,0.1,22,0.2,32.9,0.2
				c4.8,0,9.6,0,14.5,0c4,0,8.1,0.3,12-0.4c12.8-2.5,22.4-14.2,21.2-27.4C1048.1,308.8,1046.9,305.2,1045,302.1z"/>
		</g>
		<path class="st7" d="M243.4,304c-4.3-1.7-9-0.7-12.1,2.3l-21.9-12.4c1.5-4.3,1.1-8.8-0.7-12.6l20.6-13.6c1.3,1.3,2.8,2.3,4.6,3
			c7,2.8,15.1-0.6,17.9-7.6c2.8-7-0.6-15.1-7.6-17.9c-7-2.8-15.1,0.6-17.9,7.6c-1.2,3-1.3,6.2-0.4,9.1l-21.2,14
			c-1.4-1.2-3-2.2-4.7-2.9c-8.5-3.4-18.2,0.7-21.6,9.2c-3.4,8.5,0.7,18.2,9.2,21.6c6.5,2.6,13.7,0.8,18.2-4l22.1,12.5
			c-1.1,5.4,1.7,11,7,13.1c5.9,2.4,12.6-0.5,15-6.4C252.1,313.1,249.3,306.4,243.4,304z"/>
		<g>
			<g>
				
					<ellipse transform="matrix(0.2298 -0.9732 0.9732 0.2298 135.8064 1203.3696)" class="st7" cx="828.2" cy="515.9" rx="12.8" ry="12.8"/>
				<path class="st12" d="M837.6,509c0.5,1.6,0.7,3.4,0.6,5.1c-0.2,2.7-1.2,5.3-3,7.3c-1.9,2.1-4.3,3.5-6.8,4.1
					c-1.3,0.3-2.6,0.4-3.9,0.4c0,0-0.1,0-0.1,0c0.6,0.5,1.3,0.9,2.1,1.2c5,2,10.9-0.9,13.1-6.5C841.1,516.3,840.2,511.8,837.6,509z"
					/>
			</g>
			<g>
				<path class="st7" d="M852,508.2c-10.2-9.1-21.2-11.9-32.8-8.3c-8.9,2.7-14.7,8.2-14.7,8.2l-6.6-6.7c0.3-0.3,7.5-7,18.4-10.4
					c10.3-3.2,26-4,42,10.3L852,508.2z"/>
			</g>
			<g>
				<path class="st7" d="M862.7,498.1c-8.2-7.4-16.9-11.9-25.8-13.6c-7.1-1.3-14.4-0.8-21.8,1.5c-12.8,4-21.2,11.9-21.3,12l-6.6-6.6
					c0.4-0.4,10.1-9.5,25-14.2c8.9-2.8,17.8-3.4,26.4-1.8c10.7,2,21,7.3,30.5,15.8L862.7,498.1z"/>
			</g>
			<g>
				<path class="st7" d="M873.4,487.9c-10.6-9.5-21.9-15.5-33.6-17.7c-9.3-1.7-18.8-1.1-28.5,1.8c-16.8,5.1-28,15.7-28.1,15.8
					l-6.6-6.6c0.5-0.5,12.7-12,31.5-17.8c11.2-3.5,22.3-4.2,33.2-2.2c13.5,2.5,26.4,9.2,38.4,20L873.4,487.9z"/>
			</g>
		</g>
		<g>
			<polygon class="st6" points="616,403.8 611.9,393.4 616.3,391.4 620.6,398 622.3,396.1 624.7,405.4 620.4,408 			"/>
			<polygon class="st5" points="708.5,437.6 662.6,441.9 624.9,402 616.7,407.6 647,460.4 708.5,470.6 			"/>
		</g>
		<path class="st7" d="M404.9,441.5c-3.3-2.1-7.5-2.1-11-0.3c-0.8,0.4-1.5,0.8-2.3,1.2c-4,2.1-8,4.3-11.9,6.4c-3,1.6-6,3.2-8.9,4.8
			c-2.7,1.5-4.8,3.9-5.5,6.9c-0.7,2.9-0.2,5.7,1.1,8.3c-1.6,0.9-3.2,1.7-4.8,2.6c-3,1.6-6,3.2-8.9,4.8c-2.7,1.5-4.8,3.9-5.5,6.9
			c-0.8,3-0.2,5.9,1.2,8.6c1,1.9,2.1,3.9,3.1,5.8c0.9,1.7,1.8,3.6,3.1,5.1c2.6,2.9,6.8,4.2,10.6,3.3c1.5-0.3,2.7-1,4-1.7
			c7.1-3.8,14.3-7.7,21.4-11.5c0.2-0.1,0.4-0.2,0.6-0.3c3.5-1.9,5.8-5.6,5.8-9.7c0-2-0.7-3.7-1.5-5.5c0.3-0.2,0.6-0.3,1-0.5
			c4.1-2.2,8.2-4.4,12.4-6.7c0.2-0.1,0.4-0.2,0.6-0.3c3.5-1.9,5.8-5.6,5.8-9.7c0-2.5-1-4.6-2.2-6.8c-1.1-2.1-2.2-4.1-3.3-6.2
			C408.4,444.9,407.1,442.9,404.9,441.5z M396.9,445.2C396.9,445.2,396.8,445.2,396.9,445.2L396.9,445.2z M378.8,467.8
			C378.9,467.8,378.9,467.8,378.8,467.8c0.3-0.1,0.6-0.2,0.9-0.2c0.1,0,0.3,0,0.4-0.1c0,0,0.1,0,0.1,0c0,0,0.1,0,0.1,0
			c0.4,0,0.7,0,1.1,0c0,0,0.4,0,0.4,0c0.1,0,0.2,0,0.2,0c0.5,0.1,0.9,0.2,1.3,0.4c0,0,0,0,0,0c0,0,0.1,0,0.1,0.1
			c0.2,0.1,0.4,0.2,0.6,0.3c0.1,0.1,0.8,0.6,0.6,0.4c0.3,0.2,0.5,0.5,0.7,0.7c0.1,0.1,0.2,0.2,0.3,0.3c0,0,0.2,0.3,0.3,0.4
			c0.8,1.3,1.5,2.8,2.3,4.2c0.2,0.3,0.3,0.6,0.5,0.9c-0.1,0.1-0.3,0.2-0.4,0.2c-0.1,0-0.2,0.1-0.2,0.1c-1.3,0.7-2.5,1.4-3.8,2
			c-0.2,0.1-0.4,0.2-0.6,0.3c-0.2,0.1-0.5,0.2-0.7,0.3c0.1-0.1-0.6,0.2-0.8,0.2c-0.2,0.1-0.4,0.1-0.6,0.1c0,0-0.1,0-0.1,0
			c0,0,0,0,0,0c-0.5,0-0.9,0-1.4,0c0,0-0.1,0-0.2,0c-0.2,0-0.3-0.1-0.5-0.1c-0.3-0.1-0.7-0.2-1-0.3c0,0-0.1,0-0.1,0
			c0,0-0.1,0-0.1-0.1c-0.1-0.1-0.3-0.1-0.4-0.2c-0.2-0.1-0.4-0.2-0.5-0.3c-0.1-0.1-0.2-0.1-0.2-0.2c0,0,0,0,0,0
			c-0.3-0.3-0.6-0.6-0.8-0.9c0-0.1-0.1-0.1-0.1-0.2c0,0-0.2-0.3-0.3-0.4c-0.1-0.2-0.2-0.4-0.4-0.6c-0.8-1.5-1.6-2.9-2.4-4.4
			c1.3-0.7,2.5-1.4,3.8-2.1c0.4-0.2,0.7-0.4,1.1-0.6c0.1,0,0.1-0.1,0.2-0.1C378.3,468,378.6,467.9,378.8,467.8z M378.7,467.9
			C378.7,467.9,378.6,467.9,378.7,467.9L378.7,467.9z M391.1,479.6c0.1,0.1,0.1,0.2,0.2,0.3c0.1,0.2,0.2,0.4,0.3,0.6c0,0,0,0,0,0.1
			c0,0,0,0,0,0c0.1,0.5,0.2,0.9,0.3,1.4c0,0,0,0.1,0,0.2c0,0.2,0,0.3,0,0.5c0,0.3,0,0.6-0.1,0.9c0,0-0.1,0.4-0.1,0.4
			c0,0.1-0.1,0.3-0.1,0.4c-0.1,0.2-0.1,0.4-0.2,0.6c0,0.1-0.1,0.2-0.1,0.2c0,0,0,0,0,0.1c-0.2,0.3-0.4,0.7-0.6,1
			c0,0.1-0.1,0.1-0.1,0.2c0,0-0.3,0.3-0.3,0.3c-0.3,0.3-0.5,0.5-0.8,0.7c0,0-0.1,0.1-0.1,0.1c0,0-0.1,0-0.1,0.1
			c-0.2,0.1-0.4,0.2-0.6,0.3c-6.3,3.4-12.6,6.8-18.9,10.2c-1.3,0.7-2.5,1.4-3.8,2c-0.2,0.1-0.4,0.2-0.6,0.3
			c-0.2,0.1-0.5,0.2-0.7,0.3c0.1-0.1-0.6,0.2-0.8,0.2c-0.2,0.1-0.4,0.1-0.6,0.1c0,0-0.1,0-0.1,0c0,0,0,0,0,0c-0.5,0-0.9,0-1.4,0
			c0,0-0.1,0-0.2,0c-0.2,0-0.3-0.1-0.5-0.1c-0.3-0.1-0.7-0.2-1-0.3c0,0-0.1,0-0.1,0c0,0-0.1,0-0.1-0.1c-0.1-0.1-0.3-0.1-0.4-0.2
			c-0.2-0.1-0.4-0.2-0.5-0.3c-0.1-0.1-0.2-0.1-0.2-0.2c0,0,0,0,0,0c-0.3-0.3-0.6-0.6-0.8-0.9c0-0.1-0.1-0.1-0.1-0.2
			c0,0-0.2-0.3-0.3-0.4c-0.1-0.2-0.2-0.4-0.4-0.6c-0.9-1.7-1.8-3.4-2.8-5.1c-0.7-1.4-1.5-2.7-2.2-4.1c-0.1-0.1-0.1-0.3-0.2-0.4
			c0,0,0-0.1-0.1-0.1c0,0,0-0.1,0-0.1c-0.1-0.4-0.2-0.7-0.3-1.1c0-0.1-0.1-0.5-0.1-0.4c0-0.1,0-0.2,0-0.3c0-0.2,0-0.4,0-0.5
			c0-0.1,0.1-0.6,0.1-0.6c0.1-0.3,0.1-0.6,0.2-0.9c0.1-0.2,0.1-0.3,0.2-0.5c0,0,0.1-0.1,0.1-0.2c0.1-0.3,0.3-0.6,0.5-0.8
			c0.1-0.1,0.2-0.3,0.3-0.4c0,0,0.3-0.3,0.4-0.4c0.3-0.3,0.5-0.5,0.8-0.7c0,0,0.1-0.1,0.1-0.1c0.2-0.1,0.4-0.2,0.6-0.3
			c0,0,0.1-0.1,0.1-0.1c0.3-0.2,0.7-0.4,1-0.6c1.5-0.8,2.9-1.6,4.4-2.4c2.8-1.5,5.5-3,8.3-4.5c0,0,0,0.1,0.1,0.1l0,0l0.2,0.3l0,0
			c0.2,0.4,0.5,0.9,0.7,1.3c0.9,1.7,1.8,3.6,3.1,5.1c2.6,2.9,6.8,4.2,10.6,3.3c1.5-0.3,2.7-1,4-1.7c1.1-0.6,2.2-1.2,3.3-1.8
			C390.8,479.8,390.9,479.7,391.1,479.6L391.1,479.6z M406.4,451.8c0.9,1.7,1.9,3.5,2.8,5.2c0.1,0.1,0.1,0.2,0.2,0.3
			c0.1,0.2,0.2,0.4,0.3,0.6c0,0,0,0,0,0.1c0,0,0,0,0,0c0.1,0.5,0.2,0.9,0.3,1.4c0,0,0,0.1,0,0.2c0,0.2,0,0.3,0,0.5
			c0,0.3,0,0.6-0.1,0.9c0,0-0.1,0.4-0.1,0.4c0,0.1-0.1,0.3-0.1,0.4c-0.1,0.2-0.1,0.4-0.2,0.6c0,0.1-0.1,0.2-0.1,0.2c0,0,0,0,0,0.1
			c-0.2,0.3-0.4,0.7-0.6,1c0,0.1-0.1,0.1-0.1,0.2c0,0-0.3,0.3-0.3,0.3c-0.3,0.3-0.5,0.5-0.8,0.7c0,0-0.1,0.1-0.1,0.1
			c0,0-0.1,0-0.1,0.1c-0.2,0.1-0.4,0.2-0.6,0.3c-4.3,2.3-8.6,4.7-13,7c-0.3,0.2-0.6,0.3-0.9,0.5c-0.6-1.1-1.1-2.1-1.7-3.2
			c-1.2-2.2-2.5-4.2-4.7-5.6c-3.3-2.1-7.5-2.1-11-0.3c-0.8,0.4-1.5,0.8-2.3,1.2c-0.9,0.5-1.8,1-2.8,1.5c-0.1-0.2-0.2-0.3-0.3-0.5
			c-0.1-0.1-0.1-0.3-0.2-0.4c0,0,0-0.1-0.1-0.1c0,0,0-0.1,0-0.1c-0.1-0.4-0.2-0.7-0.3-1.1c0-0.1-0.1-0.5-0.1-0.4c0-0.1,0-0.2,0-0.3
			c0-0.2,0-0.4,0-0.5c0-0.1,0.1-0.6,0.1-0.6c0.1-0.3,0.1-0.6,0.2-0.9c0.1-0.2,0.1-0.3,0.2-0.5c0,0,0.1-0.1,0.1-0.2
			c0.1-0.3,0.3-0.6,0.5-0.8c0.1-0.1,0.2-0.3,0.3-0.4c0,0,0.3-0.3,0.4-0.4c0.3-0.3,0.5-0.5,0.8-0.7c0,0,0.1-0.1,0.1-0.1
			c0.2-0.1,0.4-0.2,0.6-0.3c0,0,0.1-0.1,0.1-0.1c0.3-0.2,0.7-0.4,1-0.6c1.5-0.8,2.9-1.6,4.4-2.4c4-2.2,8-4.3,12-6.5
			c1.5-0.8,3-1.6,4.5-2.4c0.4-0.2,0.7-0.4,1.1-0.6c0.1,0,0.1-0.1,0.2-0.1c0.3-0.1,0.5-0.3,0.8-0.4c0,0,0,0,0.1,0
			c0.3-0.1,0.6-0.2,0.9-0.2c0.1,0,0.3,0,0.4-0.1c0,0,0.1,0,0.1,0c0,0,0.1,0,0.1,0c0.4,0,0.7,0,1.1,0c0,0,0.4,0,0.4,0
			c0.1,0,0.2,0,0.2,0c0.5,0.1,0.9,0.2,1.3,0.4c0,0,0,0,0,0c0,0,0.1,0,0.1,0.1c0.2,0.1,0.4,0.2,0.6,0.3c0.1,0.1,0.8,0.6,0.6,0.4
			c0.3,0.2,0.5,0.5,0.7,0.7c0.1,0.1,0.2,0.2,0.3,0.3c0,0,0.2,0.3,0.3,0.4C405,448.9,405.7,450.4,406.4,451.8z"/>
		<g>
			<path class="st7" d="M377,146.1c-2-2.7-4.8-4.7-8-5.7c-2.2-0.7-4.4-0.7-6.5-0.7h-6.2c-2.9,0-5.4,0.5-7.7,1.7c-3,1.4-5.5,4-7,7
				c-1.1,2.2-1.7,4.6-1.7,7.2v32.6h4.9v-32.7c0-1.3,0.1-2.2,0.6-3.5c0.3-1,1.1-2.5,1.8-3.3c0.9-1.1,1.8-1.9,3.1-2.6
				c1.2-0.7,2.3-1.1,3.9-1.4c0.1,0,0.3,0,0.8-0.1c0.2,0,0.5,0,0.7,0h8.6c1.3,0,2.2,0.1,3.5,0.6c1,0.3,2.5,1.1,3.3,1.8
				c1.1,0.9,1.9,1.8,2.6,3.1c0.7,1.2,1.1,2.3,1.4,3.9c0,0.1,0,0.3,0.1,0.8c0,0.2,0,0.5,0,0.7v32.7h4.9v-32.7
				C380.2,152,379.1,148.8,377,146.1z"/>
			<g>
				<path class="st7" d="M334.4,175.9v35.5c0,4.8,3.9,8.7,8.7,8.7h32.7c4.8,0,8.7-3.9,8.7-8.7v-35.5H334.4z M361.1,198.7v8.6
					c0,0.6-0.7,1.2-1.7,1.2h0c-0.9,0-1.7-0.5-1.7-1.2v-8.6c-2.8-0.7-4.9-3.3-4.9-6.4c0-3.6,2.9-6.6,6.6-6.6s6.6,2.9,6.6,6.6
					C366,195.3,363.9,197.9,361.1,198.7z"/>
			</g>
		</g>
		<g>
			<g>
				<g>
					<path class="st7" d="M771,117.6l-0.8-3.5c-1.2-0.2-2.5-0.3-3.7-0.3c-1.2,0-2.5,0-3.7,0.1l-1,3.5c-1.1,3.9-6.1,5.1-8.9,2.1
						l-2.4-2.7c-2.3,0.9-4.5,2.1-6.5,3.5l0.9,3.5c1,4-2.8,7.5-6.7,6.2l-3.4-1.1c-1.5,2-2.8,4.1-3.9,6.3l2.5,2.6
						c2.9,2.9,1.4,7.9-2.7,8.7l-3.5,0.8c-0.2,1.2-0.3,2.5-0.3,3.7c0,1.2,0,2.5,0.1,3.7l3.5,1c3.9,1.1,5.1,6.1,2.1,8.9l-2.7,2.4
						c0.9,2.3,2.1,4.5,3.5,6.5l3.5-0.9c4-1,7.5,2.8,6.2,6.7l-1.1,3.4c2,1.5,4.1,2.8,6.3,3.9l2.6-2.5c2.9-2.9,7.9-1.4,8.7,2.7
						l0.8,3.5c1.2,0.2,2.5,0.3,3.7,0.3c1.2,0,2.5,0,3.7-0.1l1-3.5c1.1-3.9,6.1-5.1,8.9-2.1l2.4,2.7c2.3-0.9,4.5-2.1,6.5-3.5
						l-0.9-3.5c-1-4,2.8-7.5,6.7-6.2l3.4,1.1c1.5-2,2.8-4.1,3.9-6.3l-2.5-2.6c-2.9-2.9-1.4-7.9,2.7-8.7l3.5-0.8
						c0.2-1.2,0.3-2.5,0.3-3.7c0-1.2,0-2.5-0.1-3.7l-3.5-1c-3.9-1.1-5.1-6.1-2.1-8.9l2.7-2.4c-0.9-2.3-2.1-4.5-3.5-6.5l-3.5,0.9
						c-4,1-7.5-2.8-6.2-6.7l1.1-3.4c-2-1.5-4.1-2.8-6.3-3.9l-2.6,2.5C776.8,123.1,771.8,121.6,771,117.6z M781,152.7
						c-0.3,8.7-7.6,15.5-16.2,15.2c-8.7-0.3-15.5-7.6-15.2-16.2c0.3-8.7,7.6-15.5,16.2-15.2C774.4,136.7,781.3,144,781,152.7z"/>
				</g>
			</g>
		</g>
		<path class="st7" d="M215.7,460.2c0-11.2-12.9-20.3-28.7-20.3s-28.7,9.1-28.7,20.3c0,7.1,5.1,13.3,12.9,16.9l16,17.8l-2.7-14.5
			c0.8,0,1.6,0.1,2.4,0.1C202.9,480.5,215.7,471.4,215.7,460.2z M175,463.4c-2.5,0-2.5-3.9,0-3.9C177.5,459.5,177.5,463.4,175,463.4
			z M200.4,459.5c2.5,0,2.5,3.9,0,3.9C197.9,463.4,197.9,459.5,200.4,459.5z M188.4,459.5c2.5,0,2.5,3.9,0,3.9
			C185.9,463.4,185.9,459.5,188.4,459.5z"/>
	</g>
</g>
</svg>
