<?xml version="1.0" encoding="utf-8"?>
<!-- Generator: Adobe Illustrator 24.1.2, SVG Export Plug-In . SVG Version: 6.00 Build 0)  -->
<svg version="1.1" id="Calque_1" xmlns="http://www.w3.org/2000/svg" xmlns:xlink="http://www.w3.org/1999/xlink" x="0px" y="0px"
	 viewBox="0 0 44 44" style="enable-background:new 0 0 44 44;" xml:space="preserve">
<style type="text/css">
	.st0{fill:none;}
	.st1{fill:none;stroke:#FFFFFF;stroke-width:2.75;stroke-linecap:round;stroke-linejoin:round;stroke-miterlimit:7.3333;}
</style>
<path class="st0" d="M0,0h44v44H0V0z"/>
<line class="st1" x1="27.5" y1="14.7" x2="27.5" y2="14.7"/>
<path class="st1" d="M12.8,7.3h18.3c3,0,5.5,2.5,5.5,5.5v18.3c0,3-2.5,5.5-5.5,5.5H12.8c-3,0-5.5-2.5-5.5-5.5V12.8
	C7.3,9.8,9.8,7.3,12.8,7.3z"/>
<path class="st1" d="M7.3,27.5l7.3-7.3c1.7-1.6,3.8-1.6,5.5,0l9.2,9.2"/>
<path class="st1" d="M25.7,25.7l1.8-1.8c1.7-1.6,3.8-1.6,5.5,0l3.7,3.7"/>
</svg>
